<?xml version="1.0" encoding="UTF-8" standalone="no"?>
<!-- Created with Inkscape (http://www.inkscape.org/) -->

<svg
   width="210mm"
   height="297mm"
   viewBox="0 0 210 297"
   version="1.1"
   id="svg5"
   inkscape:version="1.1.2 (b8e25be8, 2022-02-05)"
   sodipodi:docname="cross.svg"
   xmlns:inkscape="http://www.inkscape.org/namespaces/inkscape"
   xmlns:sodipodi="http://sodipodi.sourceforge.net/DTD/sodipodi-0.dtd"
   xmlns="http://www.w3.org/2000/svg"
   xmlns:svg="http://www.w3.org/2000/svg">
  <sodipodi:namedview
     id="namedview7"
     pagecolor="#ffffff"
     bordercolor="#666666"
     borderopacity="1.0"
     inkscape:pageshadow="2"
     inkscape:pageopacity="0.0"
     inkscape:pagecheckerboard="0"
     inkscape:document-units="mm"
     showgrid="false"
     inkscape:zoom="0.44501524"
     inkscape:cx="574.13764"
     inkscape:cy="567.3963"
     inkscape:window-width="1440"
     inkscape:window-height="733"
     inkscape:window-x="0"
     inkscape:window-y="25"
     inkscape:window-maximized="0"
     inkscape:current-layer="layer1" />
  <defs
     id="defs2">
    <inkscape:path-effect
       effect="spiro"
       id="path-effect2184"
       is_visible="true"
       lpeversion="1" />
  </defs>
  <g
     inkscape:label="Layer 1"
     inkscape:groupmode="layer"
     id="layer1">
    <path
       id="rect846"
       style="color:#000000;fill:#000000;fill-rule:evenodd;stroke-width:0.526355;-inkscape-stroke:none;paint-order:markers fill stroke"
       d="m 84.525385,59.333535 c 0.0051,3.121882 0.57764,6.205203 0.827585,9.311168 0.609555,5.762163 1.21911,11.524326 1.828665,17.286488 -11.359376,-1.110011 -22.718741,-2.22014 -34.078125,-3.330078 0,13.122396 0,26.244797 0,39.367187 11.38687,-1.01849 22.773413,-2.04064 34.160157,-3.06055 -0.925439,24.71942 -1.853622,49.43873 -2.777344,74.15821 13.078776,-1e-5 26.157557,0 39.236327,0 -0.92372,-24.71948 -1.8519,-49.43879 -2.77734,-74.15821 11.38674,1.0199 22.77328,2.04206 34.16015,3.06055 0,-13.12239 0,-26.244791 0,-39.367187 -11.35938,1.109938 -22.71874,2.220067 -34.07812,3.330078 0.92283,-9.042352 1.84843,-18.084425 2.76953,-27.126953 -13.09049,0 -26.18099,0 -39.271485,0 0,0.176433 0,0.352865 0,0.529297 z M 119.625,62.747598 c -0.93055,9.123091 -1.86465,18.245824 -2.79297,27.36914 11.44342,-1.117871 22.88671,-2.237081 34.33008,-3.355468 -1e-5,10.35677 0,20.71354 0,31.07031 -11.41604,-1.02251 -22.83189,-2.04721 -34.24805,-3.06836 0.92642,24.78653 1.85709,49.57291 2.78515,74.35938 -10.39648,0 -20.792965,0 -31.18945,0 0.928059,-24.78647 1.858733,-49.57285 2.785157,-74.35938 -11.416812,1.02116 -22.83331,2.04585 -34.25,3.06836 0,-10.35677 -10e-7,-20.71354 0,-31.07031 11.44402,1.118388 22.887961,2.237589 34.332031,3.355468 -0.92832,-9.123316 -1.862421,-18.246049 -2.792969,-27.36914 10.347005,0 20.694011,0 31.041021,0 z"
       inkscape:export-filename="/Users/ksergi/Desktop/cross.png"
       inkscape:export-xdpi="300"
       inkscape:export-ydpi="300" />
  </g>
</svg>
